<?xml version="1.0" encoding="UTF-8" standalone="no"?>
<svg
   xmlns:dc="http://purl.org/dc/elements/1.1/"
   xmlns:cc="http://creativecommons.org/ns#"
   xmlns:rdf="http://www.w3.org/1999/02/22-rdf-syntax-ns#"
   xmlns:svg="http://www.w3.org/2000/svg"
   xmlns="http://www.w3.org/2000/svg"
   xmlns:sodipodi="http://sodipodi.sourceforge.net/DTD/sodipodi-0.dtd"
   xmlns:inkscape="http://www.inkscape.org/namespaces/inkscape"
   width="90.714287mm"
   height="90.714287mm"
   viewBox="0 0 90.714287 90.714287"
   version="1.1"
   id="svg8"
   inkscape:version="1.0 (4035a4fb49, 2020-05-01)"
   sodipodi:docname="audio.svg">
  <defs
     id="defs2">
    <filter
       style="color-interpolation-filters:sRGB;"
       inkscape:label="Lightness-Contrast"
       id="filter26">
      <feColorMatrix
         values="1 0 0 1 -0 0 1 0 1 -0 0 0 1 1 -0 0 0 0 1 0"
         id="feColorMatrix24" />
    </filter>
  </defs>
  <sodipodi:namedview
     inkscape:snap-global="false"
     id="base"
     pagecolor="#ffffff"
     bordercolor="#666666"
     borderopacity="1.0"
     inkscape:pageopacity="0.0"
     inkscape:pageshadow="2"
     inkscape:zoom="1.54"
     inkscape:cx="171.42857"
     inkscape:cy="172.72727"
     inkscape:document-units="mm"
     inkscape:current-layer="layer1"
     inkscape:document-rotation="0"
     showgrid="false"
     inkscape:pagecheckerboard="true"
     fit-margin-top="0"
     fit-margin-left="0"
     fit-margin-right="0"
     fit-margin-bottom="0"
     inkscape:window-width="1424"
     inkscape:window-height="1030"
     inkscape:window-x="192"
     inkscape:window-y="0"
     inkscape:window-maximized="0" />
  <metadata
     id="metadata5">
    <rdf:RDF>
      <cc:Work
         rdf:about="">
        <dc:format>image/svg+xml</dc:format>
        <dc:type
           rdf:resource="http://purl.org/dc/dcmitype/StillImage" />
        <dc:title></dc:title>
      </cc:Work>
    </rdf:RDF>
  </metadata>
  <g
     inkscape:label="Layer 1"
     inkscape:groupmode="layer"
     id="layer1"
     transform="translate(-9.0826126e-7,-2.2678571)">
    <path
       d="m 29.207251,48.999459 c 0,0 13.572781,-1.202653 16.837123,14.26001 0,0 3.264339,13.74459 -3.95157,22.163151 0,0 3.26434,-11.682901 0,-21.47592 0,0 -3.436149,-11.854709 -12.885553,-14.947241 z M 16.80276,61.043155 c 0,0 1.408819,-7.645432 6.047619,-9.07143 m 38.484848,-1.769616 c 0,0 4.982413,1.202653 4.295185,14.775434 0,0 0.171808,9.277599 -3.779761,8.074947 0,0 -3.436148,-5.84145 -3.436148,-11.511093 0,-5.669643 1.374456,-11.33929 2.920724,-11.339288 z m -0.343615,-2.405303 c 0,0 7.044103,-0.343614 6.872296,15.462663 0,0 -1.030844,15.978086 -6.356872,12.198324 -0.859037,-1.030844 -5.326028,-2.920725 -5.326028,-16.665314 0,0 0.515418,-10.995675 4.810604,-10.995673 z m 7.21591,-7.559521 c 0,0 7.731331,-4.982414 11.854709,1.889879 0,0 4.466991,6.528681 -1.030844,12.026516 0,0 -0.859037,-9.964827 -7.387717,-11.167478 z m -45.357143,11.73444 c 0,0 -2.078869,-8.315476 -8.315476,-8.315476 0,0 -4.346726,1.700894 2.267857,17.386906 M 6.7863916,37.608631 c 0,0 0.5669642,-33.8288692 35.3407734,-32.8839287 34.773809,0.9449405 33.450892,21.9226187 33.450892,21.9226187 l -1.511906,8.693452 c 0,0 18.898812,0.944941 5.858632,21.733632 0,0 0.188989,9.260416 -3.023808,10.394345 0,0 -3.212798,13.418155 -13.418155,14.363095 0,0 -12.095238,-0.377976 -12.662203,-22.111607 0,0 -0.188988,-21.355655 15.119048,-20.599702 0,0 1.700893,-2.267857 3.401786,-2.834822 0,0 -6.047619,-24.379464 -22.300595,-26.080357 0,0 -17.386905,0 -26.647322,24.757441 0,0 2.456845,9.071428 9.071429,16.441964 0,0 20.78869,10.772321 7.9375,37.986607 0,0 -9.260417,8.315476 -19.84375,-7.181548 0,0 -4.913691,-9.638392 -2.267857,-17.197916 0,0 -10.7723215,-21.544643 -1.322917,-23.623512 z"
       style="fill:none;stroke:none;stroke-width:0.264583px;stroke-linecap:butt;stroke-linejoin:miter;stroke-opacity:1"
       id="path845" />
    <path
       transform="matrix(0.26458333,0,0,0.26458333,9.0826126e-7,2.2678571)"
       id="path876"
       d="m 231.38444,181.83213 c -3.82776,1.14239 -4.58789,6.12444 -5.99001,9.33696 -4.54673,16.69567 -5.81393,34.7276 -1.57203,51.62443 2.52155,8.42858 5.60536,16.97149 10.47017,24.32296 4.07329,2.13908 8.20074,-2.35861 9.58553,-5.89615 4.72774,-11.24355 3.82425,-23.83979 4.01165,-35.77499 -0.35171,-13.93268 -1.65392,-29.25405 -10.84759,-40.44762 -1.50438,-1.47945 -3.42911,-3.13698 -5.65772,-3.16559 z"
       style="font-variation-settings:normal;opacity:1;vector-effect:none;fill:#ffffff;fill-opacity:1;stroke-width:2.45424;stroke-linecap:butt;stroke-linejoin:miter;stroke-miterlimit:4;stroke-dasharray:none;stroke-dashoffset:0;stroke-opacity:1;stop-color:#000000;stop-opacity:1;stroke:none" />
    <path
       transform="matrix(0.26458333,0,0,0.26458333,9.0826126e-7,2.2678571)"
       id="path878"
       d="M 152.36658,9.7098215 C 122.9146,9.3269828 92.482917,17.584826 69.852863,37.050537 43.054745,59.986917 29.349991,95.026423 26.084365,129.51882 c -0.146457,1.8423 -1.017798,4.48202 1.683712,4.87939 8.461748,4.49646 16.919132,9.003 25.431751,13.40262 -6.595228,1.85538 -12.284804,6.91288 -13.600852,13.82154 -3.087076,12.91207 0.620558,26.24614 3.959958,38.73736 4.079406,12.41817 8.54137,24.78717 14.418441,36.48078 -3.624454,10.85862 -2.850089,22.59819 -1.532062,33.78906 2.166031,11.12075 5.42561,22.24842 10.886485,32.21438 9.869402,14.52098 23.063177,28.43503 40.428702,33.39667 11.28487,2.09706 24.51855,0.90219 33.14859,-7.361 7.07979,-13.20611 11.39696,-27.83625 14.36054,-42.48934 1.65666,-11.6593 1.27963,-23.57133 0.468,-35.28943 -3.9989,-25.80437 -19.7132,-49.26763 -41.5162,-63.48341 C 105.37221,181.18 99.952878,171.25661 94.111456,162.24889 86.881921,150.12929 81.135899,137.191 76.808544,123.76218 84.735126,103.01316 95.412962,82.894196 110.28942,66.279424 c 15.01778,-16.56544 34.29541,-29.905528 56.28765,-34.908986 17.11266,-4.283376 34.6721,3.811681 47.74162,14.515317 23.88444,20.114715 37.67574,49.487395 46.83033,78.772485 0.38153,1.53181 2.12403,4.46588 -0.54761,4.77561 -4.66271,2.42885 -7.81579,7.28522 -12.11313,9.86522 -11.93089,-0.004 -24.33305,3.24861 -33.01556,11.84535 -14.60946,14.18024 -20.38198,34.99158 -22.38221,54.69847 -1.71738,24.01722 1.32583,49.28605 13.31802,70.52304 7.04942,11.5537 18.42833,21.9339 32.27856,23.74822 13.96513,0.0417 26.5561,-8.67521 34.77817,-19.457 8.08062,-9.84622 12.74032,-21.79939 17.24472,-33.54498 1.88037,-2.53978 4.9872,-4.26921 6.02657,-7.53855 4.72414,-10.32097 3.98491,-21.98648 5.83803,-32.88353 4.35362,-8.86696 9.77057,-17.32637 12.76507,-26.84279 4.39716,-12.54598 6.31102,-28.28069 -2.7255,-39.31361 -7.70497,-10.26616 -20.89174,-13.56707 -32.89621,-15.60218 1.76302,-12.98221 5.93297,-25.843788 5.18847,-39.052347 -2.2935,-25.692036 -21.2501,-47.12367 -43.58133,-58.473268 C 216.44907,14.77052 188.17579,10.527573 160.55199,9.7077967 c -2.72833,-0.041122 -5.45705,-0.031296 -8.18541,0.00202 z M 279.9995,136.74792 c 11.77441,-0.30119 21.15245,8.96646 25.5314,19.17614 5.95351,12.37623 4.59195,28.34335 -5.0505,38.5606 -0.96153,1.25658 -2.36797,2.7771 -2.27372,0.23176 -1.53077,-12.00008 -5.77473,-24.24935 -14.03586,-33.28937 -3.70126,-3.32099 -8.09437,-6.16906 -12.92107,-7.35466 -4.55434,-3.22966 -9.77356,-6.76607 -13.40808,-10.59634 6.63507,-3.91085 14.43653,-6.59901 22.15783,-6.72813 z M 56.081321,156.16376 c 11.983255,0.68125 21.282536,10.38953 26.071683,20.74498 1.355098,3.5364 4.304639,7.25903 3.679231,11.12266 -9.262683,4.18204 -15.203665,13.15171 -18.621906,22.43051 -1.51384,3.50112 -2.166255,7.7704 -3.859324,10.9654 -6.815487,-14.94306 -12.268828,-30.7977 -13.709834,-47.23528 -0.215479,-6.12518 -0.355023,-14.25172 5.540952,-17.92681 0.28962,-0.0919 0.597371,-0.10989 0.899198,-0.10146 z m 174.817369,15.8127 c 10.45471,0.84325 16.97466,10.72886 20.31631,19.68852 6.34048,16.9792 6.10554,35.73519 3.87708,53.4966 -1.95041,10.79791 -3.92386,22.57177 -11.23174,31.25253 -3.08519,3.72139 -8.63069,2.92391 -11.83669,-0.17248 -14.07328,-10.99218 -17.79526,-29.71241 -19.20267,-46.48669 -1.21278,-17.16156 -0.63119,-35.46644 7.77688,-50.89307 2.18364,-3.64436 5.75393,-7.05715 10.30083,-6.88541 z"
       style="font-variation-settings:normal;opacity:1;vector-effect:none;fill:#ffffff;fill-opacity:1;stroke-width:2.45424;stroke-linecap:butt;stroke-linejoin:miter;stroke-miterlimit:4;stroke-dasharray:none;stroke-dashoffset:0;stroke-opacity:1;stop-color:#000000;stop-opacity:1;stroke:none" />
    <path
       transform="matrix(0.26458333,0,0,0.26458333,9.0826126e-7,2.2678571)"
       id="path880"
       d="m 115.20774,177.13703 c 1.80167,2.64676 6.22564,3.80667 8.96916,6.05341 19.04927,12.80172 30.76584,34.38993 36.74031,56.14601 6.22377,23.32213 3.99573,47.89907 -0.47687,71.28145 1.72202,1.09665 2.61069,-2.51433 3.60314,-3.51943 14.7173,-24.52201 15.00258,-55.07204 8.316,-82.16695 -4.53724,-18.03297 -16.34435,-34.78616 -33.6559,-42.44116 -7.33649,-3.38468 -15.4715,-5.33149 -23.49584,-5.35333 z"
       style="font-variation-settings:normal;opacity:1;vector-effect:none;fill:#ffffff;fill-opacity:1;stroke-width:2.45424;stroke-linecap:butt;stroke-linejoin:miter;stroke-miterlimit:4;stroke-dasharray:none;stroke-dashoffset:0;stroke-opacity:1;stop-color:#000000;stop-opacity:1;stroke:none" />
  </g>
</svg>
